<svg version="1.1" id="Layer_1" xmlns="http://www.w3.org/2000/svg" xmlns:xlink="http://www.w3.org/1999/xlink" x="0px" y="0px"
	 width="100%" viewBox="0 0 584 586" enable-background="new 0 0 584 586" xml:space="preserve">
<path fill="#F7F7F7" opacity="1.000000" stroke="none" 
	d="
M585.000000,229.000000 
	C585.000000,348.666656 585.000000,467.833344 585.000000,587.000000 
	C390.333344,587.000000 195.666672,587.000000 1.000000,587.000000 
	C1.000000,391.666656 1.000000,196.333328 1.000000,1.000000 
	C195.666672,1.000000 390.333344,1.000000 585.000000,1.000000 
	C585.000000,76.833336 585.000000,152.666672 585.000000,229.000000 
M424.285126,529.127930 
	C428.527039,524.777771 432.768951,520.427612 437.675293,515.916565 
	C442.185425,511.379700 446.695587,506.842865 451.831268,502.047546 
	C472.366150,481.512878 492.951233,461.028015 513.409058,440.416809 
	C520.672119,433.099304 525.966614,424.608337 527.521118,413.291687 
	C527.724548,411.645599 528.104370,409.999603 528.105408,408.353363 
	C528.128784,371.900543 528.110352,335.447662 528.227051,298.065186 
	C528.238037,286.932159 528.269958,275.799103 528.256165,264.666107 
	C528.212219,229.108917 528.151245,193.551743 528.221863,157.064255 
	C528.220398,132.431686 528.470154,107.795601 528.124207,83.167870 
	C527.913940,68.198204 521.463440,56.374458 507.606812,48.349220 
	C501.315094,46.572109 495.038788,43.323437 488.729126,43.257278 
	C448.490387,42.835323 408.244293,43.114258 367.070709,43.038399 
	C274.793243,43.028538 182.515778,42.989410 90.238380,43.058762 
	C81.952789,43.064991 74.108719,45.327774 67.323463,50.271976 
	C55.357437,58.991253 49.638741,70.591324 49.672077,85.673569 
	C49.874557,177.284470 49.764648,268.896057 49.766479,360.507416 
	C49.766506,362.003845 49.860077,363.500244 49.802422,365.929657 
	C49.828915,411.284821 49.855408,456.640015 49.759426,502.816772 
	C49.919773,508.884094 50.080120,514.951416 50.137386,521.790222 
	C51.809757,529.198730 54.596485,536.024170 60.648411,541.929871 
	C68.431557,550.378418 77.889664,555.021729 89.549286,555.018311 
	C186.198639,554.990356 282.847992,555.022888 379.497314,554.971924 
	C388.784760,554.967041 397.139679,551.607910 405.618500,546.669739 
	C411.625641,540.836548 417.632782,535.003357 424.285126,529.127930 
z"/>
<path fill="#F8D757" opacity="1.000000" stroke="none" 
	d="
M49.910004,364.996674 
	C49.860077,363.500244 49.766506,362.003845 49.766479,360.507416 
	C49.764648,268.896057 49.874557,177.284470 49.672077,85.673569 
	C49.638741,70.591324 55.357437,58.991253 67.323463,50.271976 
	C74.108719,45.327774 81.952789,43.064991 90.238380,43.058762 
	C182.515778,42.989410 274.793243,43.028538 367.490906,43.431183 
	C366.652893,45.337147 365.504700,46.960190 364.120117,48.347221 
	C338.895386,73.616676 313.621918,98.837563 288.445404,124.154877 
	C286.927673,125.681076 286.134369,127.927696 284.549744,129.899994 
	C277.198303,130.649780 270.160614,130.685959 263.427094,132.135239 
	C224.622849,140.487320 195.419312,162.219894 175.805527,196.626419 
	C164.648407,216.198273 159.269272,237.407806 159.339661,260.013641 
	C157.280853,261.228760 155.349289,262.218811 153.885986,263.678345 
	C121.254288,296.226196 88.692810,328.844482 56.029358,361.360352 
	C54.398788,362.983551 51.968124,363.803009 49.910004,364.996674 
z"/>
<path fill="#F3CE54" opacity="1.000000" stroke="none" 
	d="
M49.856213,365.463165 
	C51.968124,363.803009 54.398788,362.983551 56.029358,361.360352 
	C88.692810,328.844482 121.254288,296.226196 153.885986,263.678345 
	C155.349289,262.218811 157.280853,261.228760 159.423859,260.423950 
	C159.826996,262.218689 159.800583,263.609497 159.467102,265.066772 
	C159.391876,266.088898 159.623718,267.044495 159.928192,268.444122 
	C160.004547,270.552979 159.822205,272.242645 160.040329,273.878906 
	C162.680161,293.681305 169.478317,311.983093 180.260666,328.772614 
	C189.926666,343.823853 202.230179,356.339661 217.235535,366.108002 
	C220.760437,368.402679 222.522583,371.093964 222.322800,375.520020 
	C221.955139,383.665710 222.139374,391.836273 221.743423,400.029724 
	C219.855270,401.282288 218.179642,402.363739 216.799561,403.741241 
	C187.722183,432.764984 158.621506,461.765869 129.688812,490.933350 
	C125.365761,495.291534 120.632591,497.048950 114.610710,497.092010 
	C104.676323,497.163055 94.722549,497.522675 84.820312,498.307648 
	C73.150078,499.232788 61.525993,500.740234 49.881897,501.995178 
	C49.855408,456.640015 49.828915,411.284821 49.856213,365.463165 
z"/>
<path fill="#EDB54C" opacity="1.000000" stroke="none" 
	d="
M60.344925,541.300110 
	C54.596485,536.024170 51.809757,529.198730 50.588516,521.397705 
	C54.612549,520.340088 58.166885,519.234680 61.761444,519.083130 
	C81.310669,518.258850 100.870758,517.695740 120.425087,516.987000 
	C128.041580,516.710876 135.660202,516.403320 143.264816,515.909241 
	C156.959000,515.019409 170.644745,513.997192 184.331314,512.993286 
	C193.396988,512.328247 202.458633,511.607422 211.520844,510.895813 
	C223.711914,509.938538 235.892700,508.822876 248.095169,508.047150 
	C257.192047,507.468811 266.333740,507.559021 275.421936,506.893616 
	C280.908875,506.491882 286.331696,505.214752 292.956390,504.140808 
	C282.664673,490.269409 269.593079,480.343170 259.466736,468.097717 
	C278.095093,468.112671 296.257690,468.302551 314.418427,468.190796 
	C322.789246,468.139313 328.977844,461.946625 328.926178,453.617249 
	C328.901917,449.711578 330.447205,448.262634 333.853882,447.017303 
	C346.616913,442.351715 354.268494,433.106781 355.054169,419.521271 
	C355.889771,405.073029 355.765900,390.555756 355.630035,376.072632 
	C355.585297,371.304749 357.221375,368.424774 361.132599,365.882660 
	C373.105682,358.100647 383.254456,348.300262 391.982910,336.985626 
	C404.814880,320.351624 412.316315,301.431549 416.677307,280.933624 
	C417.899719,280.175781 419.129517,279.661652 419.661316,278.743317 
	C428.338806,263.758850 442.401978,251.939545 446.352966,233.987610 
	C447.119049,233.994781 447.556793,233.999878 448.142700,234.302551 
	C455.526825,242.067551 462.762787,249.534988 469.999756,257.390198 
	C469.532349,260.749146 469.846741,264.167694 468.451385,266.609070 
	C463.944855,274.493927 455.674896,280.287445 455.511414,290.594299 
	C455.495728,291.582092 454.342651,292.559692 453.697235,293.528473 
	C444.311493,307.617462 434.897400,321.687775 425.581818,335.823029 
	C424.850739,336.932373 424.773315,338.484161 424.441559,339.842377 
	C423.883575,342.126678 423.936371,344.790070 422.734283,346.648468 
	C416.607483,356.120178 410.112854,365.352905 403.844330,374.734344 
	C400.360321,379.948486 396.859589,385.170898 393.740631,390.604401 
	C390.073853,396.992279 387.156342,403.825104 383.293945,410.082306 
	C377.719238,419.113647 371.449799,427.714905 365.814850,436.711426 
	C364.766754,438.384888 365.313202,441.057129 365.123749,443.268402 
	C365.647705,443.377380 366.171631,443.486359 366.695587,443.595337 
	C365.922150,445.065613 365.276123,446.621490 364.354950,447.992523 
	C357.511902,458.177551 350.568054,468.295227 343.786957,478.521027 
	C342.847412,479.937775 342.573700,481.816010 342.086700,483.507935 
	C341.449554,485.721405 341.438873,488.321075 340.222778,490.122986 
	C336.726440,495.303833 337.598419,498.384125 343.644836,499.945526 
	C349.732727,501.517639 355.778961,503.510681 361.974609,504.340790 
	C369.908600,505.403809 377.973694,505.488342 385.991760,506.432007 
	C386.018829,508.907288 386.036469,510.945099 386.040039,513.399658 
	C386.027008,515.206482 386.027985,516.596558 386.019287,518.431519 
	C386.010468,521.247742 386.011322,523.619019 386.006592,526.243896 
	C385.997803,526.666687 385.994629,526.835754 385.539062,527.003418 
	C376.019440,526.265076 366.869476,526.061035 357.904266,524.667847 
	C344.074036,522.518677 330.371979,519.546814 316.611267,516.946289 
	C314.632568,516.572327 312.630188,516.323486 310.638763,516.016785 
	C310.399994,516.409058 310.161194,516.801392 309.922424,517.193665 
	C312.123901,520.193542 314.400085,523.142090 316.504639,526.208435 
	C318.403870,528.975647 318.130402,530.757507 314.211578,531.026611 
	C306.130829,531.581665 298.073090,532.506165 289.987915,532.954407 
	C275.428955,533.761597 260.859344,534.393311 246.289536,534.983643 
	C224.903091,535.850159 203.535538,534.299011 182.072388,536.651428 
	C161.351852,538.922485 140.319839,538.416382 119.420418,538.970886 
	C101.982529,539.433594 84.537476,539.623474 67.098495,540.051880 
	C64.838448,540.107361 62.595692,540.866760 60.344925,541.300110 
z"/>
<path fill="#F4D055" opacity="1.000000" stroke="none" 
	d="
M285.003998,129.839096 
	C286.134369,127.927696 286.927673,125.681076 288.445404,124.154877 
	C313.621918,98.837563 338.895386,73.616676 364.120117,48.347221 
	C365.504700,46.960190 366.652893,45.337147 367.955872,43.493202 
	C408.244293,43.114258 448.490387,42.835323 488.729126,43.257278 
	C495.038788,43.323437 501.315094,46.572109 507.778595,48.974865 
	C506.611145,51.256088 505.409088,53.048668 503.912598,54.547192 
	C465.942627,92.568047 427.939209,130.555450 389.956818,168.563919 
	C388.555664,169.966003 387.307739,171.521194 385.690643,172.854370 
	C381.368591,168.746445 377.532898,164.572830 373.286041,160.870895 
	C358.164948,147.690018 340.842346,138.849304 321.349121,133.787231 
	C309.330566,130.666199 297.231964,130.090790 285.003998,129.839096 
z"/>
<path fill="#F1C953" opacity="1.000000" stroke="none" 
	d="
M385.988403,173.005005 
	C387.307739,171.521194 388.555664,169.966003 389.956818,168.563919 
	C427.939209,130.555450 465.942627,92.568047 503.912598,54.547192 
	C505.409088,53.048668 506.611145,51.256088 507.993652,49.248375 
	C521.463440,56.374458 527.913940,68.198204 528.124207,83.167870 
	C528.470154,107.795601 528.220398,132.431686 527.806213,157.563644 
	C525.851562,159.284195 524.175903,160.368423 522.793884,161.746948 
	C500.162140,184.321091 477.597382,206.962524 454.910492,229.480972 
	C452.995270,231.381973 450.317841,232.515121 447.994537,234.004990 
	C447.556793,233.999878 447.119049,233.994781 446.292633,233.653885 
	C443.735657,230.847565 441.691742,228.253372 439.378662,225.926773 
	C425.402466,211.869125 411.385773,197.851440 397.310181,183.893448 
	C396.095581,182.689011 394.355011,182.015030 392.883911,181.063446 
	C392.909058,181.032257 392.966644,181.087967 392.862000,180.848068 
	C392.475372,180.412857 392.193420,180.217545 391.947388,180.018021 
	C391.983337,180.013809 391.977264,180.085953 391.876648,179.850677 
	C391.510559,179.409714 391.245056,179.203995 390.991943,178.998154 
	C391.004364,178.998032 390.996429,179.021698 390.968689,178.714996 
	C390.581635,177.951965 390.222290,177.495667 389.905762,177.026413 
	C389.948578,177.013474 389.964233,177.101578 389.831909,176.848557 
	C389.371246,176.414459 389.042938,176.233398 388.452209,175.911957 
	C387.455994,174.849411 386.722198,173.927216 385.988403,173.005005 
z"/>
<path fill="#EFC452" opacity="1.000000" stroke="none" 
	d="
M259.000244,468.149353 
	C269.593079,480.343170 282.664673,490.269409 292.956390,504.140808 
	C286.331696,505.214752 280.908875,506.491882 275.421936,506.893616 
	C266.333740,507.559021 257.192047,507.468811 248.095169,508.047150 
	C235.892700,508.822876 223.711914,509.938538 211.520844,510.895813 
	C202.458633,511.607422 193.396988,512.328247 184.331314,512.993286 
	C170.644745,513.997192 156.959000,515.019409 143.264816,515.909241 
	C135.660202,516.403320 128.041580,516.710876 120.425087,516.987000 
	C100.870758,517.695740 81.310669,518.258850 61.761444,519.083130 
	C58.166885,519.234680 54.612549,520.340088 50.640060,521.011963 
	C50.080120,514.951416 49.919773,508.884094 49.820663,502.406006 
	C61.525993,500.740234 73.150078,499.232788 84.820312,498.307648 
	C94.722549,497.522675 104.676323,497.163055 114.610710,497.092010 
	C120.632591,497.048950 125.365761,495.291534 129.688812,490.933350 
	C158.621506,461.765869 187.722183,432.764984 216.799561,403.741241 
	C218.179642,402.363739 219.855270,401.282288 221.793167,400.496033 
	C222.203247,405.074432 222.199478,409.219849 222.226028,413.365051 
	C222.337524,430.766510 229.654892,441.426636 245.870529,448.151825 
	C247.119186,448.669739 248.847122,450.317108 248.785828,451.346222 
	C248.305161,459.418610 252.593201,464.380280 259.000244,468.149353 
z"/>
<path fill="#ECBC4F" opacity="1.000000" stroke="none" 
	d="
M528.099854,298.994812 
	C528.110352,335.447662 528.128784,371.900543 528.105408,408.353363 
	C528.104370,409.999603 527.724548,411.645599 526.906189,413.656433 
	C524.191345,414.021027 522.091431,414.020935 519.523865,414.015015 
	C512.365906,414.017975 505.675537,414.026733 498.518127,414.025635 
	C490.695251,414.028351 483.339417,414.040894 475.516876,414.036987 
	C468.361542,414.038940 461.672943,414.057373 454.517120,414.054504 
	C444.365448,413.994934 434.680969,413.956635 425.003601,413.554047 
	C428.611542,407.688446 432.349121,402.270172 435.759460,396.653229 
	C437.660889,393.521484 440.746674,389.684967 440.133148,386.851501 
	C439.522491,384.031219 439.741089,382.124176 440.985657,380.180115 
	C444.733643,374.325439 448.698242,368.608185 452.632080,362.874176 
	C455.929230,358.068176 459.301758,353.313904 462.995697,348.029175 
	C460.189026,347.189362 458.703735,346.744934 456.040863,345.948120 
	C459.779236,340.950134 463.204285,336.609833 466.363770,332.084137 
	C470.004669,326.868744 473.586243,321.595673 476.878082,316.156708 
	C481.806946,308.013062 481.359650,297.453369 488.281769,290.188507 
	C491.694519,286.606750 492.690552,282.642273 491.298218,278.147064 
	C499.460297,284.628815 504.641754,294.191254 514.927795,297.649628 
	C515.733765,297.920563 516.391052,298.980652 516.870056,299.815857 
	C518.770569,303.129517 520.790710,303.969971 523.791321,300.855438 
	C524.792542,299.816162 526.639526,299.591736 528.099854,298.994812 
z"/>
<path fill="#EDAB48" opacity="1.000000" stroke="none" 
	d="
M60.496670,541.614990 
	C62.595692,540.866760 64.838448,540.107361 67.098495,540.051880 
	C84.537476,539.623474 101.982529,539.433594 119.420418,538.970886 
	C140.319839,538.416382 161.351852,538.922485 182.072388,536.651428 
	C203.535538,534.299011 224.903091,535.850159 246.289536,534.983643 
	C260.859344,534.393311 275.428955,533.761597 289.987915,532.954407 
	C298.073090,532.506165 306.130829,531.581665 314.211578,531.026611 
	C318.130402,530.757507 318.403870,528.975647 316.504639,526.208435 
	C314.400085,523.142090 312.123901,520.193542 309.922424,517.193665 
	C310.161194,516.801392 310.399994,516.409058 310.638763,516.016785 
	C312.630188,516.323486 314.632568,516.572327 316.611267,516.946289 
	C330.371979,519.546814 344.074036,522.518677 357.904266,524.667847 
	C366.869476,526.061035 376.019440,526.265076 385.541077,527.440186 
	C385.997803,529.918152 386.000122,531.957886 386.001007,534.444885 
	C385.624725,543.497253 385.933838,548.278503 397.122223,545.216553 
	C399.420532,544.587524 402.343781,546.241943 404.978973,546.843872 
	C397.139679,551.607910 388.784760,554.967041 379.497314,554.971924 
	C282.847992,555.022888 186.198639,554.990356 89.549286,555.018311 
	C77.889664,555.021729 68.431557,550.378418 60.496670,541.614990 
z"/>
<path fill="#EEC352" opacity="1.000000" stroke="none" 
	d="
M528.163452,298.529999 
	C526.639526,299.591736 524.792542,299.816162 523.791321,300.855438 
	C520.790710,303.969971 518.770569,303.129517 516.870056,299.815857 
	C516.391052,298.980652 515.733765,297.920563 514.927795,297.649628 
	C504.641754,294.191254 499.460297,284.628815 491.149841,277.847473 
	C486.526794,273.441559 482.302551,269.531067 478.190430,265.506042 
	C475.378967,262.754120 472.723816,259.842590 469.998779,257.002441 
	C462.762787,249.534988 455.526825,242.067551 448.142700,234.302551 
	C450.317841,232.515121 452.995270,231.381973 454.910492,229.480972 
	C477.597382,206.962524 500.162140,184.321091 522.793884,161.746948 
	C524.175903,160.368423 525.851562,159.284195 527.743713,158.028809 
	C528.151245,193.551743 528.212219,229.108917 528.256165,264.666107 
	C528.269958,275.799103 528.238037,286.932159 528.163452,298.529999 
z"/>
<path fill="#EFC667" opacity="1.000000" stroke="none" 
	d="
M519.991516,414.020813 
	C522.091431,414.020935 524.191345,414.021027 526.749634,414.044342 
	C525.966614,424.608337 520.672119,433.099304 513.409058,440.416809 
	C492.951233,461.028015 472.366150,481.512878 451.268738,501.858856 
	C449.280365,501.564911 447.723236,501.030853 446.449097,501.420990 
	C434.316986,505.135681 422.309814,509.278656 410.107330,512.736023 
	C402.218628,514.971252 394.064270,516.268860 386.028931,517.986572 
	C386.027985,516.596558 386.027008,515.206482 386.428162,513.396484 
	C399.578766,509.355133 412.435760,506.067322 425.029572,501.970520 
	C431.237671,499.951050 438.202362,497.723755 442.695435,493.385284 
	C467.954010,468.995911 492.583130,443.953888 517.343140,419.051117 
	C518.620361,417.766541 519.126404,415.715179 519.991516,414.020813 
z"/>
<path fill="#EFBE60" opacity="1.000000" stroke="none" 
	d="
M386.019287,518.431519 
	C394.064270,516.268860 402.218628,514.971252 410.107330,512.736023 
	C422.309814,509.278656 434.316986,505.135681 446.449097,501.420990 
	C447.723236,501.030853 449.280365,501.564911 450.955933,501.988098 
	C446.695587,506.842865 442.185425,511.379700 437.278687,515.636108 
	C435.931274,515.065552 434.862488,514.336304 434.048370,514.555054 
	C427.668549,516.269043 421.401550,518.438782 414.976349,519.939819 
	C405.374512,522.183044 395.671936,523.994934 386.012207,525.990234 
	C386.011322,523.619019 386.010468,521.247742 386.019287,518.431519 
z"/>
<path fill="#EEB857" opacity="1.000000" stroke="none" 
	d="
M386.006592,526.243896 
	C395.671936,523.994934 405.374512,522.183044 414.976349,519.939819 
	C421.401550,518.438782 427.668549,516.269043 434.048370,514.555054 
	C434.862488,514.336304 435.931274,515.065552 436.946472,515.716553 
	C432.768951,520.427612 428.527039,524.777771 423.470612,529.102539 
	C420.205414,529.304626 417.741119,529.434814 415.306458,529.776428 
	C405.533478,531.147888 395.769653,532.584839 386.002441,533.997559 
	C386.000122,531.957886 385.997803,529.918152 385.993469,527.441650 
	C385.994629,526.835754 385.997803,526.666687 386.006592,526.243896 
z"/>
<path fill="#EDB050" opacity="1.000000" stroke="none" 
	d="
M386.001038,534.444885 
	C395.769653,532.584839 405.533478,531.147888 415.306458,529.776428 
	C417.741119,529.434814 420.205414,529.304626 423.148010,529.123657 
	C417.632782,535.003357 411.625641,540.836548 405.298737,546.756836 
	C402.343781,546.241943 399.420532,544.587524 397.122223,545.216553 
	C385.933838,548.278503 385.624725,543.497253 386.001038,534.444885 
z"/>
<path fill="#ECEFEF" opacity="1.000000" stroke="none" 
	d="
M259.466736,468.097717 
	C252.593201,464.380280 248.305161,459.418610 248.785828,451.346222 
	C248.847122,450.317108 247.119186,448.669739 245.870529,448.151825 
	C229.654892,441.426636 222.337524,430.766510 222.226028,413.365051 
	C222.199478,409.219849 222.203247,405.074432 222.143326,400.462799 
	C222.139374,391.836273 221.955139,383.665710 222.322800,375.520020 
	C222.522583,371.093964 220.760437,368.402679 217.235535,366.108002 
	C202.230179,356.339661 189.926666,343.823853 180.260666,328.772614 
	C169.478317,311.983093 162.680161,293.681305 160.040329,273.878906 
	C159.822205,272.242645 160.004547,270.552979 159.979477,268.069672 
	C159.896820,266.500916 159.835510,265.750580 159.774185,265.000275 
	C159.800583,263.609497 159.826996,262.218689 159.769196,260.417603 
	C159.269272,237.407806 164.648407,216.198273 175.805527,196.626419 
	C195.419312,162.219894 224.622849,140.487320 263.427094,132.135239 
	C270.160614,130.685959 277.198303,130.649780 284.549744,129.899994 
	C297.231964,130.090790 309.330566,130.666199 321.349121,133.787231 
	C340.842346,138.849304 358.164948,147.690018 373.286041,160.870895 
	C377.532898,164.572830 381.368591,168.746445 385.690643,172.854355 
	C386.722198,173.927216 387.455994,174.849411 388.590973,176.168365 
	C389.316193,176.743942 389.640228,176.922760 389.964233,177.101578 
	C389.964233,177.101578 389.948578,177.013474 389.914246,177.331665 
	C390.252106,178.107147 390.624268,178.564423 390.996429,179.021698 
	C390.996429,179.021698 391.004364,178.998032 391.078308,179.244385 
	C391.427277,179.689148 391.702271,179.887543 391.977264,180.085953 
	C391.977264,180.085953 391.983337,180.013809 392.029053,180.278854 
	C392.372070,180.725250 392.669373,180.906616 392.966644,181.087967 
	C392.966644,181.087967 392.909058,181.032257 392.947052,181.404907 
	C410.999359,206.565247 419.052368,234.369949 417.953308,264.876923 
	C417.759369,270.259857 416.907776,275.619080 416.359894,280.989258 
	C412.316315,301.431549 404.814880,320.351624 391.982910,336.985626 
	C383.254456,348.300262 373.105682,358.100647 361.132599,365.882660 
	C357.221375,368.424774 355.585297,371.304749 355.630035,376.072632 
	C355.765900,390.555756 355.889771,405.073029 355.054169,419.521271 
	C354.268494,433.106781 346.616913,442.351715 333.853882,447.017303 
	C330.447205,448.262634 328.901917,449.711578 328.926178,453.617249 
	C328.977844,461.946625 322.789246,468.139313 314.418427,468.190796 
	C296.257690,468.302551 278.095093,468.112671 259.466736,468.097717 
M244.099625,164.977386 
	C224.290573,174.323730 208.944565,188.572891 198.348663,207.671432 
	C181.763611,237.565079 179.934219,268.408508 193.519699,300.656311 
	C199.464294,313.499481 206.776489,325.360413 218.211136,335.041962 
	C221.521149,337.827362 224.549377,341.072388 228.196396,343.308075 
	C237.436844,348.972626 244.822021,355.903992 247.059402,367.864105 
	C246.669846,370.587677 247.147980,372.113403 250.602493,372.076111 
	C270.065063,371.866058 289.530151,371.890656 309.925171,371.962067 
	C316.396759,371.962067 322.868317,371.962067 329.724060,371.962067 
	C331.296326,358.856598 338.525146,350.053040 349.428467,343.536011 
	C354.082642,340.754181 358.279999,336.970062 362.099670,333.068390 
	C388.291809,306.313812 397.644745,274.203857 390.851013,237.651581 
	C386.656982,215.086288 375.585449,196.033417 357.684509,180.405762 
	C344.419067,168.807861 329.218323,161.025955 311.152191,157.019089 
	C300.433655,156.412933 289.715088,155.806778 278.173645,155.113785 
	C276.405334,155.403488 274.575317,155.492966 272.878998,156.016098 
	C263.499115,158.908905 254.151810,161.907379 244.099625,164.977386 
M326.279175,397.021637 
	C299.926971,397.021637 273.574768,397.021637 246.999084,397.021637 
	C246.999084,403.707428 246.873550,409.526154 247.037079,415.336731 
	C247.179138,420.385315 250.263184,423.962799 254.846161,423.985535 
	C277.632233,424.098755 300.419434,424.083160 323.205566,423.973083 
	C327.190735,423.953827 329.871857,421.706787 329.991577,417.514099 
	C330.157684,411.698059 330.137756,405.866516 329.861816,400.057556 
	C329.811951,399.008026 328.146729,398.035217 326.279175,397.021637 
z"/>
<path fill="#F8D757" opacity="1.000000" stroke="none" 
	d="
M159.467102,265.066772 
	C159.835510,265.750580 159.896820,266.500916 159.906860,267.625671 
	C159.623718,267.044495 159.391876,266.088898 159.467102,265.066772 
z"/>
<path fill="#ECB94D" opacity="1.000000" stroke="none" 
	d="
M469.999756,257.390198 
	C472.723816,259.842590 475.378967,262.754120 478.190430,265.506042 
	C482.302551,269.531067 486.526794,273.441559 490.851624,277.700439 
	C492.690552,282.642273 491.694519,286.606750 488.281769,290.188507 
	C481.359650,297.453369 481.806946,308.013062 476.878082,316.156708 
	C473.586243,321.595673 470.004669,326.868744 466.363770,332.084137 
	C463.204285,336.609833 459.779236,340.950134 456.040863,345.948120 
	C458.703735,346.744934 460.189026,347.189362 462.995697,348.029175 
	C459.301758,353.313904 455.929230,358.068176 452.632080,362.874176 
	C448.698242,368.608185 444.733643,374.325439 440.985657,380.180115 
	C439.741089,382.124176 439.522491,384.031219 440.133148,386.851501 
	C440.746674,389.684967 437.660889,393.521484 435.759460,396.653229 
	C432.349121,402.270172 428.611542,407.688446 424.536011,413.583893 
	C417.405304,413.986328 410.722260,414.377258 404.100067,413.908417 
	C395.339172,413.288177 386.074371,420.128723 386.062134,431.557526 
	C386.043396,449.028290 386.125275,466.499176 386.112976,484.437347 
	C386.082703,489.592438 386.103882,494.280182 386.092590,499.406616 
	C386.073273,501.897888 386.086456,503.950531 386.070129,506.002808 
	C386.040680,506.002441 385.982300,505.994507 385.982300,505.994507 
	C377.973694,505.488342 369.908600,505.403809 361.974609,504.340790 
	C355.778961,503.510681 349.732727,501.517639 343.644836,499.945526 
	C337.598419,498.384125 336.726440,495.303833 340.222778,490.122986 
	C341.438873,488.321075 341.449554,485.721405 342.086700,483.507935 
	C342.573700,481.816010 342.847412,479.937775 343.786957,478.521027 
	C350.568054,468.295227 357.511902,458.177551 364.354950,447.992523 
	C365.276123,446.621490 365.922150,445.065613 366.695587,443.595337 
	C366.171631,443.486359 365.647705,443.377380 365.123749,443.268402 
	C365.313202,441.057129 364.766754,438.384888 365.814850,436.711426 
	C371.449799,427.714905 377.719238,419.113647 383.293945,410.082306 
	C387.156342,403.825104 390.073853,396.992279 393.740631,390.604401 
	C396.859589,385.170898 400.360321,379.948486 403.844330,374.734344 
	C410.112854,365.352905 416.607483,356.120178 422.734283,346.648468 
	C423.936371,344.790070 423.883575,342.126678 424.441559,339.842377 
	C424.773315,338.484161 424.850739,336.932373 425.581818,335.823029 
	C434.897400,321.687775 444.311493,307.617462 453.697235,293.528473 
	C454.342651,292.559692 455.495728,291.582092 455.511414,290.594299 
	C455.674896,280.287445 463.944855,274.493927 468.451385,266.609070 
	C469.846741,264.167694 469.532349,260.749146 469.999756,257.390198 
z"/>
<path fill="#F1CB6F" opacity="1.000000" stroke="none" 
	d="
M519.523865,414.015015 
	C519.126404,415.715179 518.620361,417.766541 517.343140,419.051117 
	C492.583130,443.953888 467.954010,468.995911 442.695435,493.385284 
	C438.202362,497.723755 431.237671,499.951050 425.029572,501.970520 
	C412.435760,506.067322 399.578766,509.355133 386.442169,512.979675 
	C386.036469,510.945099 386.018829,508.907288 385.991760,506.432007 
	C385.982300,505.994507 386.040680,506.002441 386.479797,505.999756 
	C397.960205,502.654694 409.015411,499.356720 420.022308,495.904663 
	C421.186951,495.539398 422.138275,494.339935 423.070190,493.409027 
	C447.519684,468.985352 471.983276,444.575531 496.315460,420.035461 
	C497.756561,418.582001 498.120209,416.060181 498.985229,414.035492 
	C505.675537,414.026733 512.365906,414.017975 519.523865,414.015015 
z"/>
<path fill="#EEB04A" opacity="1.000000" stroke="none" 
	d="
M416.677307,280.933624 
	C416.907776,275.619080 417.759369,270.259857 417.953308,264.876923 
	C419.052368,234.369949 410.999359,206.565247 392.921906,181.436111 
	C394.355011,182.015030 396.095581,182.689011 397.310181,183.893448 
	C411.385773,197.851440 425.402466,211.869125 439.378662,225.926773 
	C441.691742,228.253372 443.735657,230.847565 445.964294,233.651825 
	C442.401978,251.939545 428.338806,263.758850 419.661316,278.743317 
	C419.129517,279.661652 417.899719,280.175781 416.677307,280.933624 
z"/>
<path fill="#EEB04A" opacity="1.000000" stroke="none" 
	d="
M390.968689,178.714996 
	C390.624268,178.564423 390.252106,178.107147 389.871429,177.344604 
	C390.222290,177.495667 390.581635,177.951965 390.968689,178.714996 
z"/>
<path fill="#EEB04A" opacity="1.000000" stroke="none" 
	d="
M392.862000,180.848068 
	C392.669373,180.906616 392.372070,180.725250 391.993103,180.283066 
	C392.193420,180.217545 392.475372,180.412857 392.862000,180.848068 
z"/>
<path fill="#EEB04A" opacity="1.000000" stroke="none" 
	d="
M389.831909,176.848557 
	C389.640228,176.922760 389.316193,176.743942 388.853394,176.308716 
	C389.042938,176.233398 389.371246,176.414459 389.831909,176.848557 
z"/>
<path fill="#EEB04A" opacity="1.000000" stroke="none" 
	d="
M391.876648,179.850677 
	C391.702271,179.887543 391.427277,179.689148 391.065918,179.244507 
	C391.245056,179.203995 391.510559,179.409714 391.876648,179.850677 
z"/>
<path fill="#F8DC91" opacity="1.000000" stroke="none" 
	d="
M386.164459,483.970032 
	C386.125275,466.499176 386.043396,449.028290 386.062134,431.557526 
	C386.074371,420.128723 395.339172,413.288177 404.100067,413.908417 
	C410.722260,414.377258 417.405304,413.986328 424.528870,413.948181 
	C434.680969,413.956635 444.365448,413.994934 454.521973,414.428131 
	C454.057739,416.653595 453.506775,418.866302 452.127228,420.257263 
	C431.882446,440.669708 411.548615,460.994202 391.147827,481.250824 
	C389.858154,482.531342 387.842407,483.080566 386.164459,483.970032 
z"/>
<path fill="#F3D17B" opacity="1.000000" stroke="none" 
	d="
M498.518158,414.025635 
	C498.120209,416.060181 497.756561,418.582001 496.315460,420.035461 
	C471.983276,444.575531 447.519684,468.985352 423.070190,493.409027 
	C422.138275,494.339935 421.186951,495.539398 420.022308,495.904663 
	C409.015411,499.356720 397.960205,502.654694 386.509277,506.000122 
	C386.086456,503.950531 386.073273,501.897888 386.481384,499.414978 
	C391.134155,497.290253 396.417938,496.673676 399.431427,493.731628 
	C424.432556,469.322876 449.041168,444.511230 473.648682,419.702576 
	C474.976135,418.364258 475.229980,415.960999 475.983582,414.053467 
	C483.339417,414.040894 490.695251,414.028351 498.518158,414.025635 
z"/>
<path fill="#F6D787" opacity="1.000000" stroke="none" 
	d="
M475.516876,414.036987 
	C475.229980,415.960999 474.976135,418.364258 473.648682,419.702576 
	C449.041168,444.511230 424.432556,469.322876 399.431427,493.731628 
	C396.417938,496.673676 391.134155,497.290253 386.513824,498.976318 
	C386.103882,494.280182 386.082703,489.592438 386.112976,484.437317 
	C387.842407,483.080566 389.858154,482.531342 391.147827,481.250824 
	C411.548615,460.994202 431.882446,440.669708 452.127228,420.257263 
	C453.506775,418.866302 454.057739,416.653595 454.989197,414.449402 
	C461.672943,414.057373 468.361542,414.038940 475.516876,414.036987 
z"/>
<path fill="#F0BE4F" opacity="1.000000" stroke="none" 
	d="
M308.994385,371.835266 
	C289.530151,371.890656 270.065063,371.866058 250.602493,372.076111 
	C247.147980,372.113403 246.669846,370.587677 247.481552,367.415833 
	C248.548508,366.553467 249.529526,366.286621 249.785583,365.702148 
	C252.103088,360.412445 254.384491,355.102356 256.471069,349.718597 
	C257.174835,347.902771 258.274933,345.201904 257.497803,344.037201 
	C254.689545,339.828308 257.776123,336.775787 258.885651,333.404694 
	C260.012360,329.981415 261.891205,326.801849 262.971191,323.367889 
	C264.919739,317.172424 266.267609,310.783142 268.324493,304.627869 
	C271.104187,296.309509 275.406738,288.751801 276.144073,279.452209 
	C276.731995,272.037689 281.181641,264.938171 283.836639,257.669495 
	C284.247192,256.545532 284.318359,255.268936 284.384857,254.054077 
	C284.511749,251.736481 284.024170,249.254456 284.698822,247.128586 
	C285.688416,244.010284 287.780762,241.250153 288.848938,238.146622 
	C290.386536,233.679138 291.531860,229.065643 292.636017,224.464401 
	C293.231049,221.984909 293.040283,219.288406 293.811584,216.884781 
	C296.553589,208.340195 302.055328,200.727966 302.210663,191.275772 
	C302.238373,189.589340 303.669067,187.971756 304.158722,186.239502 
	C306.883118,176.601852 315.019318,168.419174 311.994232,157.233673 
	C329.218323,161.025955 344.419067,168.807861 357.798706,181.073196 
	C356.542816,185.305237 355.163605,188.866394 353.804749,192.435287 
	C351.677032,198.023575 347.407288,203.830154 347.934052,209.159943 
	C348.785583,217.776459 343.161102,223.478348 341.613251,230.774536 
	C341.104797,233.171249 340.494049,235.546844 340.014374,237.948929 
	C339.261017,241.721802 338.804688,245.570694 337.791779,249.269424 
	C337.053070,251.966949 335.474335,254.422943 334.537750,257.080933 
	C333.568787,259.830719 331.438263,263.491760 332.434998,265.347351 
	C334.729828,269.619690 332.848572,272.395081 331.273285,275.867340 
	C329.150970,280.545380 327.539337,285.460114 325.822632,290.313599 
	C325.397064,291.516754 324.776672,293.372528 325.329956,294.077728 
	C327.977661,297.452454 326.109131,300.332214 324.844482,303.348785 
	C323.110535,307.484680 321.281586,311.585205 319.710205,315.782104 
	C319.222015,317.086060 318.807892,319.494659 319.434143,319.963959 
	C323.469299,322.987793 320.817474,326.212067 319.849243,329.140076 
	C318.144409,334.295532 315.962036,339.293060 313.925201,344.495667 
	C315.535248,345.495605 316.736115,346.241425 318.159302,347.125305 
	C317.470398,348.703247 316.806366,350.022369 316.307404,351.401184 
	C313.845703,358.203857 311.427765,365.022369 308.994385,371.835266 
z"/>
<path fill="#F0C451" opacity="1.000000" stroke="none" 
	d="
M309.459778,371.898682 
	C311.427765,365.022369 313.845703,358.203857 316.307404,351.401184 
	C316.806366,350.022369 317.470398,348.703247 318.159302,347.125305 
	C316.736115,346.241425 315.535248,345.495605 313.925201,344.495667 
	C315.962036,339.293060 318.144409,334.295532 319.849243,329.140076 
	C320.817474,326.212067 323.469299,322.987793 319.434143,319.963959 
	C318.807892,319.494659 319.222015,317.086060 319.710205,315.782104 
	C321.281586,311.585205 323.110535,307.484680 324.844482,303.348785 
	C326.109131,300.332214 327.977661,297.452454 325.329956,294.077728 
	C324.776672,293.372528 325.397064,291.516754 325.822632,290.313599 
	C327.539337,285.460114 329.150970,280.545380 331.273285,275.867340 
	C332.848572,272.395081 334.729828,269.619690 332.434998,265.347351 
	C331.438263,263.491760 333.568787,259.830719 334.537750,257.080933 
	C335.474335,254.422943 337.053070,251.966949 337.791779,249.269424 
	C338.804688,245.570694 339.261017,241.721802 340.014374,237.948929 
	C340.494049,235.546844 341.104797,233.171249 341.613251,230.774536 
	C343.161102,223.478348 348.785583,217.776459 347.934052,209.159943 
	C347.407288,203.830154 351.677032,198.023575 353.804749,192.435287 
	C355.163605,188.866394 356.542816,185.305237 357.957458,181.366821 
	C375.585449,196.033417 386.656982,215.086288 390.851013,237.651581 
	C397.644745,274.203857 388.291809,306.313812 362.099670,333.068390 
	C358.279999,336.970062 354.082642,340.754181 349.428467,343.536011 
	C338.525146,350.053040 331.296326,358.856598 329.724060,371.962067 
	C322.868317,371.962067 316.396759,371.962067 309.459778,371.898682 
z"/>
<path fill="#EFB84C" opacity="1.000000" stroke="none" 
	d="
M311.573212,157.126373 
	C315.019318,168.419174 306.883118,176.601852 304.158722,186.239502 
	C303.669067,187.971756 302.238373,189.589340 302.210663,191.275772 
	C302.055328,200.727966 296.553589,208.340195 293.811584,216.884781 
	C293.040283,219.288406 293.231049,221.984909 292.636017,224.464401 
	C291.531860,229.065643 290.386536,233.679138 288.848938,238.146622 
	C287.780762,241.250153 285.688416,244.010284 284.698822,247.128586 
	C284.024170,249.254456 284.511749,251.736481 284.384857,254.054077 
	C284.318359,255.268936 284.247192,256.545532 283.836639,257.669495 
	C281.181641,264.938171 276.731995,272.037689 276.144073,279.452209 
	C275.406738,288.751801 271.104187,296.309509 268.324493,304.627869 
	C266.267609,310.783142 264.919739,317.172424 262.971191,323.367889 
	C261.891205,326.801849 260.012360,329.981415 258.885651,333.404694 
	C257.776123,336.775787 254.689545,339.828308 257.497803,344.037201 
	C258.274933,345.201904 257.174835,347.902771 256.471069,349.718597 
	C254.384491,355.102356 252.103088,360.412445 249.785583,365.702148 
	C249.529526,366.286621 248.548508,366.553467 247.534424,366.980042 
	C244.822021,355.903992 237.436844,348.972626 228.196396,343.308075 
	C224.549377,341.072388 221.521149,337.827362 218.089752,334.373840 
	C221.354034,323.805450 224.917648,313.961456 228.068604,303.987061 
	C230.552185,296.125244 235.426819,289.214783 235.480286,280.271301 
	C235.509460,275.387604 239.156754,270.529907 241.152237,265.652252 
	C242.707886,261.849701 244.492752,258.115234 245.706802,254.204926 
	C247.328796,248.980621 248.063232,243.456100 249.942154,238.340912 
	C255.439911,223.373901 261.450134,208.595505 266.983337,193.640976 
	C269.470886,186.917908 271.300415,179.951401 273.430634,173.096024 
	C275.284363,167.130402 277.141144,161.165726 278.996552,155.200623 
	C289.715088,155.806778 300.433655,156.412933 311.573212,157.126373 
z"/>
<path fill="#EFB24A" opacity="1.000000" stroke="none" 
	d="
M278.585083,155.157196 
	C277.141144,161.165726 275.284363,167.130402 273.430634,173.096024 
	C271.300415,179.951401 269.470886,186.917908 266.983337,193.640976 
	C261.450134,208.595505 255.439911,223.373901 249.942154,238.340912 
	C248.063232,243.456100 247.328796,248.980621 245.706802,254.204926 
	C244.492752,258.115234 242.707886,261.849701 241.152237,265.652252 
	C239.156754,270.529907 235.509460,275.387604 235.480286,280.271301 
	C235.426819,289.214783 230.552185,296.125244 228.068604,303.987061 
	C224.917648,313.961456 221.354034,323.805450 217.906448,334.114685 
	C206.776489,325.360413 199.464294,313.499481 193.838379,300.326355 
	C195.397888,299.473053 197.389648,299.256958 197.751083,298.373779 
	C199.421707,294.291199 200.523819,289.980988 202.042297,285.830139 
	C205.423386,276.587646 208.876816,267.370605 212.406586,258.183868 
	C214.834442,251.864990 217.616837,245.678711 219.929886,239.320068 
	C224.992325,225.403275 229.689941,211.352142 234.872894,197.481537 
	C237.455856,190.569016 241.204468,184.079285 243.598007,177.113846 
	C244.894455,173.341019 244.451599,168.970520 244.793350,164.869629 
	C254.151810,161.907379 263.499115,158.908905 272.878998,156.016098 
	C274.575317,155.492966 276.405334,155.403488 278.585083,155.157196 
z"/>
<path fill="#EEAD49" opacity="1.000000" stroke="none" 
	d="
M244.446487,164.923508 
	C244.451599,168.970520 244.894455,173.341019 243.598007,177.113846 
	C241.204468,184.079285 237.455856,190.569016 234.872894,197.481537 
	C229.689941,211.352142 224.992325,225.403275 219.929886,239.320068 
	C217.616837,245.678711 214.834442,251.864990 212.406586,258.183868 
	C208.876816,267.370605 205.423386,276.587646 202.042297,285.830139 
	C200.523819,289.980988 199.421707,294.291199 197.751083,298.373779 
	C197.389648,299.256958 195.397888,299.473053 193.766602,299.996582 
	C179.934219,268.408508 181.763611,237.565079 198.348663,207.671432 
	C208.944565,188.572891 224.290573,174.323730 244.446487,164.923508 
z"/>
<path fill="#EFBF50" opacity="1.000000" stroke="none" 
	d="
M326.753204,397.024323 
	C328.146729,398.035217 329.811951,399.008026 329.861816,400.057556 
	C330.137756,405.866516 330.157684,411.698059 329.991577,417.514099 
	C329.871857,421.706787 327.190735,423.953827 323.205566,423.973083 
	C300.419434,424.083160 277.632233,424.098755 254.846161,423.985535 
	C250.263184,423.962799 247.179138,420.385315 247.037079,415.336731 
	C246.873550,409.526154 246.999084,403.707428 246.999084,397.021637 
	C273.574768,397.021637 299.926971,397.021637 326.753204,397.024323 
z"/>
</svg>